<svg xmlns="http://www.w3.org/2000/svg" xmlns:xlink="http://www.w3.org/1999/xlink" viewBox="0,0,256,256" width="50px" height="50px"><g fill="#ffffff" fill-rule="nonzero" stroke="none" stroke-width="1" stroke-linecap="butt" stroke-linejoin="miter" stroke-miterlimit="10" stroke-dasharray="" stroke-dashoffset="0" font-family="none" font-weight="none" font-size="none" text-anchor="none" style="mix-blend-mode: normal"><g transform="scale(5.12,5.12)"><path d="M8,31c-0.131,0 -0.263,-0.025 -0.388,-0.078c-0.371,-0.156 -0.612,-0.52 -0.612,-0.922v-12c0,-0.27 0.108,-0.527 0.302,-0.716l12.281,-11.98c2.063,-2.011 5.396,-1.988 7.431,0.046c1.008,1.008 1.558,2.347 1.549,3.771c-0.009,1.424 -0.574,2.756 -1.594,3.751l-18.271,17.844c-0.19,0.185 -0.442,0.284 -0.698,0.284zM9,18.422v9.204l16.572,-16.186c0.633,-0.618 0.985,-1.446 0.99,-2.331c0.006,-0.887 -0.337,-1.719 -0.963,-2.346c-1.266,-1.264 -3.337,-1.278 -4.62,-0.028zM25.726,45.993c-1.357,0 -2.713,-0.515 -3.739,-1.542c-1.007,-1.007 -1.558,-2.347 -1.549,-3.771c0.009,-1.424 0.574,-2.757 1.594,-3.752l18.271,-17.844c0.288,-0.28 0.717,-0.362 1.086,-0.206c0.37,0.157 0.611,0.52 0.611,0.923v12c0,0.27 -0.108,0.527 -0.302,0.716l-12.281,11.98c-1.021,0.998 -2.357,1.496 -3.691,1.496zM40,22.175l-16.572,16.185c-0.633,0.618 -0.985,1.447 -0.99,2.332c-0.006,0.886 0.337,1.719 0.963,2.345c1.267,1.267 3.338,1.28 4.62,0.028l11.979,-11.686zM23,33h-11c-0.404,0 -0.77,-0.243 -0.924,-0.617c-0.155,-0.374 -0.069,-0.804 0.217,-1.09l15,-15c0.187,-0.188 0.441,-0.293 0.707,-0.293h11c0.404,0 0.77,0.243 0.924,0.617c0.155,0.374 0.069,0.804 -0.217,1.09l-15,15c-0.187,0.188 -0.441,0.293 -0.707,0.293zM14.414,31h8.172l13,-13h-8.172z"></path></g></g></svg>